<svg xmlns="http://www.w3.org/2000/svg" xmlns:xlink="http://www.w3.org/1999/xlink" width="40" zoomAndPan="magnify" viewBox="0 0 30 30.000001" height="40" preserveAspectRatio="xMidYMid meet" version="1.0"><defs><clipPath id="dd449daf6e"><path d="M 0.484375 0 L 29.515625 0 L 29.515625 29.03125 L 0.484375 29.03125 Z M 0.484375 0 " clip-rule="nonzero"/></clipPath><clipPath id="55a383b572"><path d="M 1.289062 16.128906 L 28.710938 16.128906 L 28.710938 29.03125 L 1.289062 29.03125 Z M 1.289062 16.128906 " clip-rule="nonzero"/></clipPath><clipPath id="1e7e367021"><path d="M 1.289062 16.128906 C 1.289062 23.15625 7.53125 29.03125 15 29.03125 C 22.46875 29.03125 28.710938 23.15625 28.710938 16.128906 Z M 1.289062 16.128906 " clip-rule="nonzero"/></clipPath><clipPath id="eed8c8c7c6"><path d="M 0.289062 0.128906 L 27.710938 0.128906 L 27.710938 13.03125 L 0.289062 13.03125 Z M 0.289062 0.128906 " clip-rule="nonzero"/></clipPath><clipPath id="f8fadde623"><path d="M 0.289062 0.128906 C 0.289062 7.15625 6.53125 13.03125 14 13.03125 C 21.46875 13.03125 27.710938 7.15625 27.710938 0.128906 Z M 0.289062 0.128906 " clip-rule="nonzero"/></clipPath><clipPath id="1ba652f3bf"><rect x="0" width="28" y="0" height="14"/></clipPath><clipPath id="72111fc1fc"><path d="M 2.097656 15.324219 L 27.902344 15.324219 L 27.902344 16.933594 L 2.097656 16.933594 Z M 2.097656 15.324219 " clip-rule="nonzero"/></clipPath><clipPath id="0a3abc972e"><path d="M 0.0976562 0.324219 L 25.902344 0.324219 L 25.902344 1.933594 L 0.0976562 1.933594 Z M 0.0976562 0.324219 " clip-rule="nonzero"/></clipPath><clipPath id="5f3266f2f4"><rect x="0" width="26" y="0" height="2"/></clipPath><clipPath id="bcc42467bd"><path d="M 27.097656 15.324219 L 28.710938 15.324219 L 28.710938 16.933594 L 27.097656 16.933594 Z M 27.097656 15.324219 " clip-rule="nonzero"/></clipPath><clipPath id="96dd7c260e"><path d="M 27.902344 15.324219 C 27.457031 15.324219 27.097656 15.683594 27.097656 16.128906 C 27.097656 16.574219 27.457031 16.933594 27.902344 16.933594 C 28.347656 16.933594 28.710938 16.574219 28.710938 16.128906 C 28.710938 15.683594 28.347656 15.324219 27.902344 15.324219 Z M 27.902344 15.324219 " clip-rule="nonzero"/></clipPath><clipPath id="77f795da92"><path d="M 0.0976562 0.324219 L 1.710938 0.324219 L 1.710938 1.933594 L 0.0976562 1.933594 Z M 0.0976562 0.324219 " clip-rule="nonzero"/></clipPath><clipPath id="26faf04259"><path d="M 0.902344 0.324219 C 0.457031 0.324219 0.0976562 0.683594 0.0976562 1.128906 C 0.0976562 1.574219 0.457031 1.933594 0.902344 1.933594 C 1.347656 1.933594 1.710938 1.574219 1.710938 1.128906 C 1.710938 0.683594 1.347656 0.324219 0.902344 0.324219 Z M 0.902344 0.324219 " clip-rule="nonzero"/></clipPath><clipPath id="754a3a48c1"><rect x="0" width="2" y="0" height="2"/></clipPath><clipPath id="2bec8da58b"><path d="M 1.289062 15.324219 L 2.902344 15.324219 L 2.902344 16.933594 L 1.289062 16.933594 Z M 1.289062 15.324219 " clip-rule="nonzero"/></clipPath><clipPath id="5f80177b94"><path d="M 2.097656 15.324219 C 1.652344 15.324219 1.289062 15.683594 1.289062 16.128906 C 1.289062 16.574219 1.652344 16.933594 2.097656 16.933594 C 2.542969 16.933594 2.902344 16.574219 2.902344 16.128906 C 2.902344 15.683594 2.542969 15.324219 2.097656 15.324219 Z M 2.097656 15.324219 " clip-rule="nonzero"/></clipPath><clipPath id="f8cd055c6a"><path d="M 0.289062 0.324219 L 1.902344 0.324219 L 1.902344 1.933594 L 0.289062 1.933594 Z M 0.289062 0.324219 " clip-rule="nonzero"/></clipPath><clipPath id="c20239b314"><path d="M 1.097656 0.324219 C 0.652344 0.324219 0.289062 0.683594 0.289062 1.128906 C 0.289062 1.574219 0.652344 1.933594 1.097656 1.933594 C 1.542969 1.933594 1.902344 1.574219 1.902344 1.128906 C 1.902344 0.683594 1.542969 0.324219 1.097656 0.324219 Z M 1.097656 0.324219 " clip-rule="nonzero"/></clipPath><clipPath id="cf56606b41"><rect x="0" width="2" y="0" height="2"/></clipPath><clipPath id="458e0288ed"><path d="M 0.484375 0 L 8.546875 0 L 8.546875 8.066406 L 0.484375 8.066406 Z M 0.484375 0 " clip-rule="nonzero"/></clipPath><clipPath id="3b13d0791f"><path d="M 4.515625 0 C 2.289062 0 0.484375 1.804688 0.484375 4.03125 C 0.484375 6.257812 2.289062 8.066406 4.515625 8.066406 C 6.742188 8.066406 8.546875 6.257812 8.546875 4.03125 C 8.546875 1.804688 6.742188 0 4.515625 0 Z M 4.515625 0 " clip-rule="nonzero"/></clipPath><clipPath id="59f44b80ec"><path d="M 0.484375 0 L 8.546875 0 L 8.546875 8.066406 L 0.484375 8.066406 Z M 0.484375 0 " clip-rule="nonzero"/></clipPath><clipPath id="d2df0a390d"><path d="M 4.515625 0 C 2.289062 0 0.484375 1.804688 0.484375 4.03125 C 0.484375 6.257812 2.289062 8.066406 4.515625 8.066406 C 6.742188 8.066406 8.546875 6.257812 8.546875 4.03125 C 8.546875 1.804688 6.742188 0 4.515625 0 Z M 4.515625 0 " clip-rule="nonzero"/></clipPath><clipPath id="455f81011b"><rect x="0" width="9" y="0" height="9"/></clipPath><clipPath id="4ef7540b86"><path d="M 21.453125 0 L 29.515625 0 L 29.515625 8.066406 L 21.453125 8.066406 Z M 21.453125 0 " clip-rule="nonzero"/></clipPath><clipPath id="f848e350a9"><path d="M 25.484375 0 C 23.257812 0 21.453125 1.804688 21.453125 4.03125 C 21.453125 6.257812 23.257812 8.066406 25.484375 8.066406 C 27.710938 8.066406 29.515625 6.257812 29.515625 4.03125 C 29.515625 1.804688 27.710938 0 25.484375 0 Z M 25.484375 0 " clip-rule="nonzero"/></clipPath><clipPath id="2dc9ca56ca"><path d="M 0.453125 0 L 8.515625 0 L 8.515625 8.066406 L 0.453125 8.066406 Z M 0.453125 0 " clip-rule="nonzero"/></clipPath><clipPath id="96c966ad3b"><path d="M 4.484375 0 C 2.257812 0 0.453125 1.804688 0.453125 4.03125 C 0.453125 6.257812 2.257812 8.066406 4.484375 8.066406 C 6.710938 8.066406 8.515625 6.257812 8.515625 4.03125 C 8.515625 1.804688 6.710938 0 4.484375 0 Z M 4.484375 0 " clip-rule="nonzero"/></clipPath><clipPath id="e52a1192b6"><rect x="0" width="9" y="0" height="9"/></clipPath><clipPath id="799fb5f549"><rect x="0" width="30" y="0" height="30"/></clipPath></defs><g clip-path="url(#dd449daf6e)"><g transform="matrix(1, 0, 0, 1, 0, 0.000000000000005692)"><g clip-path="url(#799fb5f549)"><g clip-path="url(#55a383b572)"><g clip-path="url(#1e7e367021)"><g transform="matrix(1, 0, 0, 1, 1, 16)"><g clip-path="url(#1ba652f3bf)"><g clip-path="url(#eed8c8c7c6)"><g clip-path="url(#f8fadde623)"><path fill="#47ffff" d="M 27.710938 13.03125 L 0.289062 13.03125 L 0.289062 0.128906 L 27.710938 0.128906 Z M 27.710938 13.03125 " fill-opacity="1" fill-rule="nonzero"/></g></g></g></g></g></g><g clip-path="url(#72111fc1fc)"><g transform="matrix(1, 0, 0, 1, 2, 15)"><g clip-path="url(#5f3266f2f4)"><g clip-path="url(#0a3abc972e)"><path fill="#47ffff" d="M 25.902344 0.324219 L 25.902344 1.933594 L 0.0976562 1.933594 L 0.0976562 0.324219 Z M 25.902344 0.324219 " fill-opacity="1" fill-rule="nonzero"/></g></g></g></g><g clip-path="url(#bcc42467bd)"><g clip-path="url(#96dd7c260e)"><g transform="matrix(1, 0, 0, 1, 27, 15)"><g clip-path="url(#754a3a48c1)"><g clip-path="url(#77f795da92)"><g clip-path="url(#26faf04259)"><path fill="#47ffff" d="M 0.0976562 0.324219 L 1.710938 0.324219 L 1.710938 1.933594 L 0.0976562 1.933594 Z M 0.0976562 0.324219 " fill-opacity="1" fill-rule="nonzero"/></g></g></g></g></g></g><g clip-path="url(#2bec8da58b)"><g clip-path="url(#5f80177b94)"><g transform="matrix(1, 0, 0, 1, 1, 15)"><g clip-path="url(#cf56606b41)"><g clip-path="url(#f8cd055c6a)"><g clip-path="url(#c20239b314)"><path fill="#47ffff" d="M 0.289062 0.324219 L 1.902344 0.324219 L 1.902344 1.933594 L 0.289062 1.933594 Z M 0.289062 0.324219 " fill-opacity="1" fill-rule="nonzero"/></g></g></g></g></g></g><g clip-path="url(#458e0288ed)"><g clip-path="url(#3b13d0791f)"><g transform="matrix(1, 0, 0, 1, 0, 0.000000000000005692)"><g clip-path="url(#455f81011b)"><g clip-path="url(#59f44b80ec)"><g clip-path="url(#d2df0a390d)"><path fill="#47ffff" d="M 0.484375 0 L 8.546875 0 L 8.546875 8.066406 L 0.484375 8.066406 Z M 0.484375 0 " fill-opacity="1" fill-rule="nonzero"/></g></g></g></g></g></g><g clip-path="url(#4ef7540b86)"><g clip-path="url(#f848e350a9)"><g transform="matrix(1, 0, 0, 1, 21, 0.000000000000005692)"><g clip-path="url(#e52a1192b6)"><g clip-path="url(#2dc9ca56ca)"><g clip-path="url(#96c966ad3b)"><path fill="#47ffff" d="M 0.453125 0 L 8.515625 0 L 8.515625 8.066406 L 0.453125 8.066406 Z M 0.453125 0 " fill-opacity="1" fill-rule="nonzero"/></g></g></g></g></g></g></g></g></g></svg>