<svg xmlns="http://www.w3.org/2000/svg" xmlns:xlink="http://www.w3.org/1999/xlink" width="40" zoomAndPan="magnify" viewBox="0 0 30 30.000001" height="40" preserveAspectRatio="xMidYMid meet" version="1.0"><defs><clipPath id="c9dcc72fd5"><path d="M 0.484375 0 L 29.515625 0 L 29.515625 29.03125 L 0.484375 29.03125 Z M 0.484375 0 " clip-rule="nonzero"/></clipPath><clipPath id="a3824054d6"><path d="M 8.46875 0 L 21.53125 0 C 23.648438 0 25.679688 0.839844 27.175781 2.339844 C 28.675781 3.835938 29.515625 5.867188 29.515625 7.984375 L 29.515625 21.046875 C 29.515625 23.164062 28.675781 25.195312 27.175781 26.695312 C 25.679688 28.191406 23.648438 29.03125 21.53125 29.03125 L 8.46875 29.03125 C 4.058594 29.03125 0.484375 25.457031 0.484375 21.046875 L 0.484375 7.984375 C 0.484375 3.574219 4.058594 0 8.46875 0 Z M 8.46875 0 " clip-rule="nonzero"/></clipPath><clipPath id="293944d9ab"><path d="M 8.136719 15.3125 L 21.84375 15.3125 L 21.84375 21.765625 L 8.136719 21.765625 Z M 8.136719 15.3125 " clip-rule="nonzero"/></clipPath><clipPath id="3b49acc57f"><path d="M 8.136719 15.3125 C 8.136719 18.828125 11.257812 21.765625 14.988281 21.765625 C 18.722656 21.765625 21.84375 18.828125 21.84375 15.3125 Z M 8.136719 15.3125 " clip-rule="nonzero"/></clipPath><clipPath id="47aea3af67"><path d="M 0.136719 0.3125 L 13.84375 0.3125 L 13.84375 6.765625 L 0.136719 6.765625 Z M 0.136719 0.3125 " clip-rule="nonzero"/></clipPath><clipPath id="d4ed4033d7"><path d="M 0.136719 0.3125 C 0.136719 3.828125 3.257812 6.765625 6.988281 6.765625 C 10.722656 6.765625 13.84375 3.828125 13.84375 0.3125 Z M 0.136719 0.3125 " clip-rule="nonzero"/></clipPath><clipPath id="7ba749d01b"><rect x="0" width="14" y="0" height="7"/></clipPath><clipPath id="e86a582754"><path d="M 8.542969 14.914062 L 21.445312 14.914062 L 21.445312 15.722656 L 8.542969 15.722656 Z M 8.542969 14.914062 " clip-rule="nonzero"/></clipPath><clipPath id="7cbd3231b9"><path d="M 0.542969 0.914062 L 13.445312 0.914062 L 13.445312 1.722656 L 0.542969 1.722656 Z M 0.542969 0.914062 " clip-rule="nonzero"/></clipPath><clipPath id="98fc8f546a"><rect x="0" width="14" y="0" height="2"/></clipPath><clipPath id="b37cd7fc33"><path d="M 21.046875 14.917969 L 21.855469 14.917969 L 21.855469 15.726562 L 21.046875 15.726562 Z M 21.046875 14.917969 " clip-rule="nonzero"/></clipPath><clipPath id="f05ff1c42c"><path d="M 21.453125 14.917969 C 21.230469 14.917969 21.046875 15.101562 21.046875 15.324219 C 21.046875 15.546875 21.230469 15.726562 21.453125 15.726562 C 21.675781 15.726562 21.855469 15.546875 21.855469 15.324219 C 21.855469 15.101562 21.675781 14.917969 21.453125 14.917969 Z M 21.453125 14.917969 " clip-rule="nonzero"/></clipPath><clipPath id="32b2f30521"><path d="M 0.046875 0.917969 L 0.855469 0.917969 L 0.855469 1.726562 L 0.046875 1.726562 Z M 0.046875 0.917969 " clip-rule="nonzero"/></clipPath><clipPath id="9086fee34c"><path d="M 0.453125 0.917969 C 0.230469 0.917969 0.046875 1.101562 0.046875 1.324219 C 0.046875 1.546875 0.230469 1.726562 0.453125 1.726562 C 0.675781 1.726562 0.855469 1.546875 0.855469 1.324219 C 0.855469 1.101562 0.675781 0.917969 0.453125 0.917969 Z M 0.453125 0.917969 " clip-rule="nonzero"/></clipPath><clipPath id="f28ee9beb4"><rect x="0" width="1" y="0" height="2"/></clipPath><clipPath id="731c0dbb90"><path d="M 8.144531 14.917969 L 8.953125 14.917969 L 8.953125 15.726562 L 8.144531 15.726562 Z M 8.144531 14.917969 " clip-rule="nonzero"/></clipPath><clipPath id="5a96a9d856"><path d="M 8.546875 14.917969 C 8.324219 14.917969 8.144531 15.101562 8.144531 15.324219 C 8.144531 15.546875 8.324219 15.726562 8.546875 15.726562 C 8.769531 15.726562 8.953125 15.546875 8.953125 15.324219 C 8.953125 15.101562 8.769531 14.917969 8.546875 14.917969 Z M 8.546875 14.917969 " clip-rule="nonzero"/></clipPath><clipPath id="e9139dea57"><path d="M 0.144531 0.917969 L 0.953125 0.917969 L 0.953125 1.726562 L 0.144531 1.726562 Z M 0.144531 0.917969 " clip-rule="nonzero"/></clipPath><clipPath id="ad85065d03"><path d="M 0.546875 0.917969 C 0.324219 0.917969 0.144531 1.101562 0.144531 1.324219 C 0.144531 1.546875 0.324219 1.726562 0.546875 1.726562 C 0.769531 1.726562 0.953125 1.546875 0.953125 1.324219 C 0.953125 1.101562 0.769531 0.917969 0.546875 0.917969 Z M 0.546875 0.917969 " clip-rule="nonzero"/></clipPath><clipPath id="2f0f847b18"><rect x="0" width="1" y="0" height="2"/></clipPath><clipPath id="1e5f5306bc"><path d="M 7.742188 7.257812 L 11.773438 7.257812 L 11.773438 11.289062 L 7.742188 11.289062 Z M 7.742188 7.257812 " clip-rule="nonzero"/></clipPath><clipPath id="359397f44a"><path d="M 9.757812 7.257812 C 8.644531 7.257812 7.742188 8.160156 7.742188 9.273438 C 7.742188 10.386719 8.644531 11.289062 9.757812 11.289062 C 10.871094 11.289062 11.773438 10.386719 11.773438 9.273438 C 11.773438 8.160156 10.871094 7.257812 9.757812 7.257812 Z M 9.757812 7.257812 " clip-rule="nonzero"/></clipPath><clipPath id="e62504791a"><path d="M 0.742188 0.257812 L 4.773438 0.257812 L 4.773438 4.289062 L 0.742188 4.289062 Z M 0.742188 0.257812 " clip-rule="nonzero"/></clipPath><clipPath id="5bb853f71d"><path d="M 2.757812 0.257812 C 1.644531 0.257812 0.742188 1.160156 0.742188 2.273438 C 0.742188 3.386719 1.644531 4.289062 2.757812 4.289062 C 3.871094 4.289062 4.773438 3.386719 4.773438 2.273438 C 4.773438 1.160156 3.871094 0.257812 2.757812 0.257812 Z M 2.757812 0.257812 " clip-rule="nonzero"/></clipPath><clipPath id="d8910ba15f"><rect x="0" width="5" y="0" height="5"/></clipPath><clipPath id="487709985a"><path d="M 18.226562 7.257812 L 22.257812 7.257812 L 22.257812 11.289062 L 18.226562 11.289062 Z M 18.226562 7.257812 " clip-rule="nonzero"/></clipPath><clipPath id="281a02d1c1"><path d="M 20.242188 7.257812 C 19.128906 7.257812 18.226562 8.160156 18.226562 9.273438 C 18.226562 10.386719 19.128906 11.289062 20.242188 11.289062 C 21.355469 11.289062 22.257812 10.386719 22.257812 9.273438 C 22.257812 8.160156 21.355469 7.257812 20.242188 7.257812 Z M 20.242188 7.257812 " clip-rule="nonzero"/></clipPath><clipPath id="95584a9e44"><path d="M 0.226562 0.257812 L 4.257812 0.257812 L 4.257812 4.289062 L 0.226562 4.289062 Z M 0.226562 0.257812 " clip-rule="nonzero"/></clipPath><clipPath id="d9668e4aa3"><path d="M 2.242188 0.257812 C 1.128906 0.257812 0.226562 1.160156 0.226562 2.273438 C 0.226562 3.386719 1.128906 4.289062 2.242188 4.289062 C 3.355469 4.289062 4.257812 3.386719 4.257812 2.273438 C 4.257812 1.160156 3.355469 0.257812 2.242188 0.257812 Z M 2.242188 0.257812 " clip-rule="nonzero"/></clipPath><clipPath id="034ce27e0b"><rect x="0" width="5" y="0" height="5"/></clipPath></defs><g clip-path="url(#c9dcc72fd5)"><g clip-path="url(#a3824054d6)"><path stroke-linecap="butt" transform="matrix(0.725806, 0, 0, 0.725806, 0.48387, 0.00000193548)" fill="none" stroke-linejoin="miter" d="M 11.00139 -0.00000266667 L 28.998612 -0.00000266667 C 31.915626 -0.00000266667 34.714237 1.157115 36.775522 3.223782 C 38.842188 5.285067 39.999307 8.083678 39.999307 11.000692 L 39.999307 28.997914 C 39.999307 31.914928 38.842188 34.713539 36.775522 36.780206 C 34.714237 38.841491 31.915626 39.998609 28.998612 39.998609 L 11.00139 39.998609 C 4.925174 39.998609 0.000695111 35.07413 0.000695111 28.997914 L 0.000695111 11.000692 C 0.000695111 4.924477 4.925174 -0.00000266667 11.00139 -0.00000266667 Z M 11.00139 -0.00000266667 " stroke="#47ffff" stroke-width="8" stroke-opacity="1" stroke-miterlimit="4"/></g></g><g clip-path="url(#293944d9ab)"><g clip-path="url(#3b49acc57f)"><g transform="matrix(1, 0, 0, 1, 8, 15)"><g clip-path="url(#7ba749d01b)"><g clip-path="url(#47aea3af67)"><g clip-path="url(#d4ed4033d7)"><path fill="#47ffff" d="M 13.84375 6.765625 L 0.136719 6.765625 L 0.136719 0.3125 L 13.84375 0.3125 Z M 13.84375 6.765625 " fill-opacity="1" fill-rule="nonzero"/></g></g></g></g></g></g><g clip-path="url(#e86a582754)"><g transform="matrix(1, 0, 0, 1, 8, 14)"><g clip-path="url(#98fc8f546a)"><g clip-path="url(#7cbd3231b9)"><path fill="#47ffff" d="M 13.445312 0.914062 L 13.445312 1.722656 L 0.542969 1.722656 L 0.542969 0.914062 Z M 13.445312 0.914062 " fill-opacity="1" fill-rule="nonzero"/></g></g></g></g><g clip-path="url(#b37cd7fc33)"><g clip-path="url(#f05ff1c42c)"><g transform="matrix(1, 0, 0, 1, 21, 14)"><g clip-path="url(#f28ee9beb4)"><g clip-path="url(#32b2f30521)"><g clip-path="url(#9086fee34c)"><path fill="#47ffff" d="M 0.046875 0.917969 L 0.855469 0.917969 L 0.855469 1.726562 L 0.046875 1.726562 Z M 0.046875 0.917969 " fill-opacity="1" fill-rule="nonzero"/></g></g></g></g></g></g><g clip-path="url(#731c0dbb90)"><g clip-path="url(#5a96a9d856)"><g transform="matrix(1, 0, 0, 1, 8, 14)"><g clip-path="url(#2f0f847b18)"><g clip-path="url(#e9139dea57)"><g clip-path="url(#ad85065d03)"><path fill="#47ffff" d="M 0.144531 0.917969 L 0.953125 0.917969 L 0.953125 1.726562 L 0.144531 1.726562 Z M 0.144531 0.917969 " fill-opacity="1" fill-rule="nonzero"/></g></g></g></g></g></g><g clip-path="url(#1e5f5306bc)"><g clip-path="url(#359397f44a)"><g transform="matrix(1, 0, 0, 1, 7, 7)"><g clip-path="url(#d8910ba15f)"><g clip-path="url(#e62504791a)"><g clip-path="url(#5bb853f71d)"><path fill="#47ffff" d="M 0.742188 0.257812 L 4.773438 0.257812 L 4.773438 4.289062 L 0.742188 4.289062 Z M 0.742188 0.257812 " fill-opacity="1" fill-rule="nonzero"/></g></g></g></g></g></g><g clip-path="url(#487709985a)"><g clip-path="url(#281a02d1c1)"><g transform="matrix(1, 0, 0, 1, 18, 7)"><g clip-path="url(#034ce27e0b)"><g clip-path="url(#95584a9e44)"><g clip-path="url(#d9668e4aa3)"><path fill="#47ffff" d="M 0.226562 0.257812 L 4.257812 0.257812 L 4.257812 4.289062 L 0.226562 4.289062 Z M 0.226562 0.257812 " fill-opacity="1" fill-rule="nonzero"/></g></g></g></g></g></g></svg>