<svg xmlns="http://www.w3.org/2000/svg" xmlns:xlink="http://www.w3.org/1999/xlink" width="40" zoomAndPan="magnify" viewBox="0 0 30 30.000001" height="40" preserveAspectRatio="xMidYMid meet" version="1.0"><defs><clipPath id="06b7360478"><path d="M 0.484375 0 L 29.515625 0 L 29.515625 29.03125 L 0.484375 29.03125 Z M 0.484375 0 " clip-rule="nonzero"/></clipPath><clipPath id="3de6284175"><path d="M 1.289062 16.128906 L 28.710938 16.128906 L 28.710938 29.03125 L 1.289062 29.03125 Z M 1.289062 16.128906 " clip-rule="nonzero"/></clipPath><clipPath id="e4f8b43cba"><path d="M 1.289062 16.128906 C 1.289062 23.15625 7.53125 29.03125 15 29.03125 C 22.46875 29.03125 28.710938 23.15625 28.710938 16.128906 Z M 1.289062 16.128906 " clip-rule="nonzero"/></clipPath><clipPath id="59c90e62ce"><path d="M 0.289062 0.128906 L 27.710938 0.128906 L 27.710938 13.03125 L 0.289062 13.03125 Z M 0.289062 0.128906 " clip-rule="nonzero"/></clipPath><clipPath id="e4077a77ca"><path d="M 0.289062 0.128906 C 0.289062 7.15625 6.53125 13.03125 14 13.03125 C 21.46875 13.03125 27.710938 7.15625 27.710938 0.128906 Z M 0.289062 0.128906 " clip-rule="nonzero"/></clipPath><clipPath id="1d2ad154eb"><rect x="0" width="28" y="0" height="14"/></clipPath><clipPath id="fd3521c064"><path d="M 2.097656 15.324219 L 27.902344 15.324219 L 27.902344 16.933594 L 2.097656 16.933594 Z M 2.097656 15.324219 " clip-rule="nonzero"/></clipPath><clipPath id="d2f8fcaff2"><path d="M 0.0976562 0.324219 L 25.902344 0.324219 L 25.902344 1.933594 L 0.0976562 1.933594 Z M 0.0976562 0.324219 " clip-rule="nonzero"/></clipPath><clipPath id="c9ff880416"><rect x="0" width="26" y="0" height="2"/></clipPath><clipPath id="c24bdfd9cc"><path d="M 27.097656 15.324219 L 28.710938 15.324219 L 28.710938 16.933594 L 27.097656 16.933594 Z M 27.097656 15.324219 " clip-rule="nonzero"/></clipPath><clipPath id="02ff8d67fd"><path d="M 27.902344 15.324219 C 27.457031 15.324219 27.097656 15.683594 27.097656 16.128906 C 27.097656 16.574219 27.457031 16.933594 27.902344 16.933594 C 28.347656 16.933594 28.710938 16.574219 28.710938 16.128906 C 28.710938 15.683594 28.347656 15.324219 27.902344 15.324219 Z M 27.902344 15.324219 " clip-rule="nonzero"/></clipPath><clipPath id="da77c87df7"><path d="M 0.0976562 0.324219 L 1.710938 0.324219 L 1.710938 1.933594 L 0.0976562 1.933594 Z M 0.0976562 0.324219 " clip-rule="nonzero"/></clipPath><clipPath id="a11d1501f5"><path d="M 0.902344 0.324219 C 0.457031 0.324219 0.0976562 0.683594 0.0976562 1.128906 C 0.0976562 1.574219 0.457031 1.933594 0.902344 1.933594 C 1.347656 1.933594 1.710938 1.574219 1.710938 1.128906 C 1.710938 0.683594 1.347656 0.324219 0.902344 0.324219 Z M 0.902344 0.324219 " clip-rule="nonzero"/></clipPath><clipPath id="d4f44753dc"><rect x="0" width="2" y="0" height="2"/></clipPath><clipPath id="2eb56b12f1"><path d="M 1.289062 15.324219 L 2.902344 15.324219 L 2.902344 16.933594 L 1.289062 16.933594 Z M 1.289062 15.324219 " clip-rule="nonzero"/></clipPath><clipPath id="b18d6a45a8"><path d="M 2.097656 15.324219 C 1.652344 15.324219 1.289062 15.683594 1.289062 16.128906 C 1.289062 16.574219 1.652344 16.933594 2.097656 16.933594 C 2.542969 16.933594 2.902344 16.574219 2.902344 16.128906 C 2.902344 15.683594 2.542969 15.324219 2.097656 15.324219 Z M 2.097656 15.324219 " clip-rule="nonzero"/></clipPath><clipPath id="4c20388326"><path d="M 0.289062 0.324219 L 1.902344 0.324219 L 1.902344 1.933594 L 0.289062 1.933594 Z M 0.289062 0.324219 " clip-rule="nonzero"/></clipPath><clipPath id="2d5e756464"><path d="M 1.097656 0.324219 C 0.652344 0.324219 0.289062 0.683594 0.289062 1.128906 C 0.289062 1.574219 0.652344 1.933594 1.097656 1.933594 C 1.542969 1.933594 1.902344 1.574219 1.902344 1.128906 C 1.902344 0.683594 1.542969 0.324219 1.097656 0.324219 Z M 1.097656 0.324219 " clip-rule="nonzero"/></clipPath><clipPath id="6fc45bb4d6"><rect x="0" width="2" y="0" height="2"/></clipPath><clipPath id="721a38e45e"><path d="M 0.484375 0 L 8.546875 0 L 8.546875 8.066406 L 0.484375 8.066406 Z M 0.484375 0 " clip-rule="nonzero"/></clipPath><clipPath id="ad6a238faa"><path d="M 4.515625 0 C 2.289062 0 0.484375 1.804688 0.484375 4.03125 C 0.484375 6.257812 2.289062 8.066406 4.515625 8.066406 C 6.742188 8.066406 8.546875 6.257812 8.546875 4.03125 C 8.546875 1.804688 6.742188 0 4.515625 0 Z M 4.515625 0 " clip-rule="nonzero"/></clipPath><clipPath id="bde2b0150a"><path d="M 0.484375 0 L 8.546875 0 L 8.546875 8.066406 L 0.484375 8.066406 Z M 0.484375 0 " clip-rule="nonzero"/></clipPath><clipPath id="d9a20e863a"><path d="M 4.515625 0 C 2.289062 0 0.484375 1.804688 0.484375 4.03125 C 0.484375 6.257812 2.289062 8.066406 4.515625 8.066406 C 6.742188 8.066406 8.546875 6.257812 8.546875 4.03125 C 8.546875 1.804688 6.742188 0 4.515625 0 Z M 4.515625 0 " clip-rule="nonzero"/></clipPath><clipPath id="d57bb542f6"><rect x="0" width="9" y="0" height="9"/></clipPath><clipPath id="5ba189ca4b"><path d="M 21.453125 0 L 29.515625 0 L 29.515625 8.066406 L 21.453125 8.066406 Z M 21.453125 0 " clip-rule="nonzero"/></clipPath><clipPath id="a84f436445"><path d="M 25.484375 0 C 23.257812 0 21.453125 1.804688 21.453125 4.03125 C 21.453125 6.257812 23.257812 8.066406 25.484375 8.066406 C 27.710938 8.066406 29.515625 6.257812 29.515625 4.03125 C 29.515625 1.804688 27.710938 0 25.484375 0 Z M 25.484375 0 " clip-rule="nonzero"/></clipPath><clipPath id="6cd094b39a"><path d="M 0.453125 0 L 8.515625 0 L 8.515625 8.066406 L 0.453125 8.066406 Z M 0.453125 0 " clip-rule="nonzero"/></clipPath><clipPath id="d18d7ca7c9"><path d="M 4.484375 0 C 2.257812 0 0.453125 1.804688 0.453125 4.03125 C 0.453125 6.257812 2.257812 8.066406 4.484375 8.066406 C 6.710938 8.066406 8.515625 6.257812 8.515625 4.03125 C 8.515625 1.804688 6.710938 0 4.484375 0 Z M 4.484375 0 " clip-rule="nonzero"/></clipPath><clipPath id="832dc42841"><rect x="0" width="9" y="0" height="9"/></clipPath><clipPath id="e6d6ae5073"><rect x="0" width="30" y="0" height="30"/></clipPath><clipPath id="4a6d7001a6"><path d="M 1.289062 16.128906 L 28.710938 16.128906 L 28.710938 29.03125 L 1.289062 29.03125 Z M 1.289062 16.128906 " clip-rule="nonzero"/></clipPath><clipPath id="2116b43707"><path d="M 1.289062 16.128906 C 1.289062 23.15625 7.53125 29.03125 15 29.03125 C 22.46875 29.03125 28.710938 23.15625 28.710938 16.128906 Z M 1.289062 16.128906 " clip-rule="nonzero"/></clipPath><clipPath id="63bb0fb172"><path d="M 0.289062 0.128906 L 27.710938 0.128906 L 27.710938 13.03125 L 0.289062 13.03125 Z M 0.289062 0.128906 " clip-rule="nonzero"/></clipPath><clipPath id="0e40a9d9bd"><path d="M 0.289062 0.128906 C 0.289062 7.15625 6.53125 13.03125 14 13.03125 C 21.46875 13.03125 27.710938 7.15625 27.710938 0.128906 Z M 0.289062 0.128906 " clip-rule="nonzero"/></clipPath><clipPath id="542da365e0"><rect x="0" width="28" y="0" height="14"/></clipPath><clipPath id="abf8d3d2eb"><path d="M 2.097656 15.324219 L 27.902344 15.324219 L 27.902344 16.933594 L 2.097656 16.933594 Z M 2.097656 15.324219 " clip-rule="nonzero"/></clipPath><clipPath id="43d66702d6"><path d="M 0.0976562 0.324219 L 25.902344 0.324219 L 25.902344 1.933594 L 0.0976562 1.933594 Z M 0.0976562 0.324219 " clip-rule="nonzero"/></clipPath><clipPath id="9a8c9b2cd1"><rect x="0" width="26" y="0" height="2"/></clipPath><clipPath id="6267563a35"><path d="M 27.097656 15.324219 L 28.710938 15.324219 L 28.710938 16.933594 L 27.097656 16.933594 Z M 27.097656 15.324219 " clip-rule="nonzero"/></clipPath><clipPath id="c2d7bafa7d"><path d="M 27.902344 15.324219 C 27.457031 15.324219 27.097656 15.683594 27.097656 16.128906 C 27.097656 16.574219 27.457031 16.933594 27.902344 16.933594 C 28.347656 16.933594 28.710938 16.574219 28.710938 16.128906 C 28.710938 15.683594 28.347656 15.324219 27.902344 15.324219 Z M 27.902344 15.324219 " clip-rule="nonzero"/></clipPath><clipPath id="7895a48fd9"><path d="M 0.0976562 0.324219 L 1.710938 0.324219 L 1.710938 1.933594 L 0.0976562 1.933594 Z M 0.0976562 0.324219 " clip-rule="nonzero"/></clipPath><clipPath id="ed23fb0998"><path d="M 0.902344 0.324219 C 0.457031 0.324219 0.0976562 0.683594 0.0976562 1.128906 C 0.0976562 1.574219 0.457031 1.933594 0.902344 1.933594 C 1.347656 1.933594 1.710938 1.574219 1.710938 1.128906 C 1.710938 0.683594 1.347656 0.324219 0.902344 0.324219 Z M 0.902344 0.324219 " clip-rule="nonzero"/></clipPath><clipPath id="31dd252a5b"><rect x="0" width="2" y="0" height="2"/></clipPath><clipPath id="f0ceb61fa9"><path d="M 1.289062 15.324219 L 2.902344 15.324219 L 2.902344 16.933594 L 1.289062 16.933594 Z M 1.289062 15.324219 " clip-rule="nonzero"/></clipPath><clipPath id="60561316db"><path d="M 2.097656 15.324219 C 1.652344 15.324219 1.289062 15.683594 1.289062 16.128906 C 1.289062 16.574219 1.652344 16.933594 2.097656 16.933594 C 2.542969 16.933594 2.902344 16.574219 2.902344 16.128906 C 2.902344 15.683594 2.542969 15.324219 2.097656 15.324219 Z M 2.097656 15.324219 " clip-rule="nonzero"/></clipPath><clipPath id="ac52698b80"><path d="M 0.289062 0.324219 L 1.902344 0.324219 L 1.902344 1.933594 L 0.289062 1.933594 Z M 0.289062 0.324219 " clip-rule="nonzero"/></clipPath><clipPath id="11e2bd58a6"><path d="M 1.097656 0.324219 C 0.652344 0.324219 0.289062 0.683594 0.289062 1.128906 C 0.289062 1.574219 0.652344 1.933594 1.097656 1.933594 C 1.542969 1.933594 1.902344 1.574219 1.902344 1.128906 C 1.902344 0.683594 1.542969 0.324219 1.097656 0.324219 Z M 1.097656 0.324219 " clip-rule="nonzero"/></clipPath><clipPath id="96ebf4385e"><rect x="0" width="2" y="0" height="2"/></clipPath><clipPath id="c191d07d6b"><path d="M 0.484375 0 L 8.546875 0 L 8.546875 8.066406 L 0.484375 8.066406 Z M 0.484375 0 " clip-rule="nonzero"/></clipPath><clipPath id="fdf7f65c18"><path d="M 4.515625 0 C 2.289062 0 0.484375 1.804688 0.484375 4.03125 C 0.484375 6.257812 2.289062 8.066406 4.515625 8.066406 C 6.742188 8.066406 8.546875 6.257812 8.546875 4.03125 C 8.546875 1.804688 6.742188 0 4.515625 0 Z M 4.515625 0 " clip-rule="nonzero"/></clipPath><clipPath id="0619fcbfb2"><path d="M 0.484375 0 L 8.546875 0 L 8.546875 8.066406 L 0.484375 8.066406 Z M 0.484375 0 " clip-rule="nonzero"/></clipPath><clipPath id="4e1614dbda"><path d="M 4.515625 0 C 2.289062 0 0.484375 1.804688 0.484375 4.03125 C 0.484375 6.257812 2.289062 8.066406 4.515625 8.066406 C 6.742188 8.066406 8.546875 6.257812 8.546875 4.03125 C 8.546875 1.804688 6.742188 0 4.515625 0 Z M 4.515625 0 " clip-rule="nonzero"/></clipPath><clipPath id="e6fc5b8c4c"><rect x="0" width="9" y="0" height="9"/></clipPath><clipPath id="1958e2d8e7"><path d="M 21.453125 0 L 29.515625 0 L 29.515625 8.066406 L 21.453125 8.066406 Z M 21.453125 0 " clip-rule="nonzero"/></clipPath><clipPath id="5215481de0"><path d="M 25.484375 0 C 23.257812 0 21.453125 1.804688 21.453125 4.03125 C 21.453125 6.257812 23.257812 8.066406 25.484375 8.066406 C 27.710938 8.066406 29.515625 6.257812 29.515625 4.03125 C 29.515625 1.804688 27.710938 0 25.484375 0 Z M 25.484375 0 " clip-rule="nonzero"/></clipPath><clipPath id="b71d5cd93a"><path d="M 0.453125 0 L 8.515625 0 L 8.515625 8.066406 L 0.453125 8.066406 Z M 0.453125 0 " clip-rule="nonzero"/></clipPath><clipPath id="ad70f6d3be"><path d="M 4.484375 0 C 2.257812 0 0.453125 1.804688 0.453125 4.03125 C 0.453125 6.257812 2.257812 8.066406 4.484375 8.066406 C 6.710938 8.066406 8.515625 6.257812 8.515625 4.03125 C 8.515625 1.804688 6.710938 0 4.484375 0 Z M 4.484375 0 " clip-rule="nonzero"/></clipPath><clipPath id="e9c92f18b6"><rect x="0" width="9" y="0" height="9"/></clipPath><clipPath id="af99041b7c"><rect x="0" width="30" y="0" height="30"/></clipPath></defs><g clip-path="url(#06b7360478)"><g transform="matrix(1, 0, 0, 1, 0, 0.000000000000005692)"><g clip-path="url(#e6d6ae5073)"><g clip-path="url(#3de6284175)"><g clip-path="url(#e4f8b43cba)"><g transform="matrix(1, 0, 0, 1, 1, 16)"><g clip-path="url(#1d2ad154eb)"><g clip-path="url(#59c90e62ce)"><g clip-path="url(#e4077a77ca)"><path fill="#ffffff" d="M 27.710938 13.03125 L 0.289062 13.03125 L 0.289062 0.128906 L 27.710938 0.128906 Z M 27.710938 13.03125 " fill-opacity="1" fill-rule="nonzero"/></g></g></g></g></g></g><g clip-path="url(#fd3521c064)"><g transform="matrix(1, 0, 0, 1, 2, 15)"><g clip-path="url(#c9ff880416)"><g clip-path="url(#d2f8fcaff2)"><path fill="#ffffff" d="M 25.902344 0.324219 L 25.902344 1.933594 L 0.0976562 1.933594 L 0.0976562 0.324219 Z M 25.902344 0.324219 " fill-opacity="1" fill-rule="nonzero"/></g></g></g></g><g clip-path="url(#c24bdfd9cc)"><g clip-path="url(#02ff8d67fd)"><g transform="matrix(1, 0, 0, 1, 27, 15)"><g clip-path="url(#d4f44753dc)"><g clip-path="url(#da77c87df7)"><g clip-path="url(#a11d1501f5)"><path fill="#ffffff" d="M 0.0976562 0.324219 L 1.710938 0.324219 L 1.710938 1.933594 L 0.0976562 1.933594 Z M 0.0976562 0.324219 " fill-opacity="1" fill-rule="nonzero"/></g></g></g></g></g></g><g clip-path="url(#2eb56b12f1)"><g clip-path="url(#b18d6a45a8)"><g transform="matrix(1, 0, 0, 1, 1, 15)"><g clip-path="url(#6fc45bb4d6)"><g clip-path="url(#4c20388326)"><g clip-path="url(#2d5e756464)"><path fill="#ffffff" d="M 0.289062 0.324219 L 1.902344 0.324219 L 1.902344 1.933594 L 0.289062 1.933594 Z M 0.289062 0.324219 " fill-opacity="1" fill-rule="nonzero"/></g></g></g></g></g></g><g clip-path="url(#721a38e45e)"><g clip-path="url(#ad6a238faa)"><g transform="matrix(1, 0, 0, 1, 0, 0.000000000000005692)"><g clip-path="url(#d57bb542f6)"><g clip-path="url(#bde2b0150a)"><g clip-path="url(#d9a20e863a)"><path fill="#ffffff" d="M 0.484375 0 L 8.546875 0 L 8.546875 8.066406 L 0.484375 8.066406 Z M 0.484375 0 " fill-opacity="1" fill-rule="nonzero"/></g></g></g></g></g></g><g clip-path="url(#5ba189ca4b)"><g clip-path="url(#a84f436445)"><g transform="matrix(1, 0, 0, 1, 21, 0.000000000000005692)"><g clip-path="url(#832dc42841)"><g clip-path="url(#6cd094b39a)"><g clip-path="url(#d18d7ca7c9)"><path fill="#ffffff" d="M 0.453125 0 L 8.515625 0 L 8.515625 8.066406 L 0.453125 8.066406 Z M 0.453125 0 " fill-opacity="1" fill-rule="nonzero"/></g></g></g></g></g></g></g></g><g transform="matrix(1, 0, 0, 1, 0, 0.000000000000005692)"><g clip-path="url(#af99041b7c)"><g clip-path="url(#4a6d7001a6)"><g clip-path="url(#2116b43707)"><g transform="matrix(1, 0, 0, 1, 1, 16)"><g clip-path="url(#542da365e0)"><g clip-path="url(#63bb0fb172)"><g clip-path="url(#0e40a9d9bd)"><path fill="#000000" d="M 27.710938 13.03125 L 0.289062 13.03125 L 0.289062 0.128906 L 27.710938 0.128906 Z M 27.710938 13.03125 " fill-opacity="1" fill-rule="nonzero"/></g></g></g></g></g></g><g clip-path="url(#abf8d3d2eb)"><g transform="matrix(1, 0, 0, 1, 2, 15)"><g clip-path="url(#9a8c9b2cd1)"><g clip-path="url(#43d66702d6)"><path fill="#000000" d="M 25.902344 0.324219 L 25.902344 1.933594 L 0.0976562 1.933594 L 0.0976562 0.324219 Z M 25.902344 0.324219 " fill-opacity="1" fill-rule="nonzero"/></g></g></g></g><g clip-path="url(#6267563a35)"><g clip-path="url(#c2d7bafa7d)"><g transform="matrix(1, 0, 0, 1, 27, 15)"><g clip-path="url(#31dd252a5b)"><g clip-path="url(#7895a48fd9)"><g clip-path="url(#ed23fb0998)"><path fill="#000000" d="M 0.0976562 0.324219 L 1.710938 0.324219 L 1.710938 1.933594 L 0.0976562 1.933594 Z M 0.0976562 0.324219 " fill-opacity="1" fill-rule="nonzero"/></g></g></g></g></g></g><g clip-path="url(#f0ceb61fa9)"><g clip-path="url(#60561316db)"><g transform="matrix(1, 0, 0, 1, 1, 15)"><g clip-path="url(#96ebf4385e)"><g clip-path="url(#ac52698b80)"><g clip-path="url(#11e2bd58a6)"><path fill="#000000" d="M 0.289062 0.324219 L 1.902344 0.324219 L 1.902344 1.933594 L 0.289062 1.933594 Z M 0.289062 0.324219 " fill-opacity="1" fill-rule="nonzero"/></g></g></g></g></g></g><g clip-path="url(#c191d07d6b)"><g clip-path="url(#fdf7f65c18)"><g transform="matrix(1, 0, 0, 1, 0, 0.000000000000005692)"><g clip-path="url(#e6fc5b8c4c)"><g clip-path="url(#0619fcbfb2)"><g clip-path="url(#4e1614dbda)"><path fill="#000000" d="M 0.484375 0 L 8.546875 0 L 8.546875 8.066406 L 0.484375 8.066406 Z M 0.484375 0 " fill-opacity="1" fill-rule="nonzero"/></g></g></g></g></g></g><g clip-path="url(#1958e2d8e7)"><g clip-path="url(#5215481de0)"><g transform="matrix(1, 0, 0, 1, 21, 0.000000000000005692)"><g clip-path="url(#e9c92f18b6)"><g clip-path="url(#b71d5cd93a)"><g clip-path="url(#ad70f6d3be)"><path fill="#000000" d="M 0.453125 0 L 8.515625 0 L 8.515625 8.066406 L 0.453125 8.066406 Z M 0.453125 0 " fill-opacity="1" fill-rule="nonzero"/></g></g></g></g></g></g></g></g></g></svg>