<svg xmlns="http://www.w3.org/2000/svg" style="display:none">

  <!-- menu -->
  <symbol id="menu" viewBox="0 -960 960 960">
    <path fill="currentColor" d="M150-240q-12.75 0-21.37-8.68-8.63-8.67-8.63-21.5 0-12.82 8.63-21.32 8.62-8.5 21.37-8.5h660q12.75 0 21.38 8.68 8.62 8.67 8.62 21.5 0 12.82-8.62 21.32-8.63 8.5-21.38 8.5H150Zm0-210q-12.75 0-21.37-8.68-8.63-8.67-8.63-21.5 0-12.82 8.63-21.32 8.62-8.5 21.37-8.5h660q12.75 0 21.38 8.68 8.62 8.67 8.62 21.5 0 12.82-8.62 21.32-8.63 8.5-21.38 8.5H150Zm0-210q-12.75 0-21.37-8.68-8.63-8.67-8.63-21.5 0-12.82 8.63-21.32 8.62-8.5 21.37-8.5h660q12.75 0 21.38 8.68 8.62 8.67 8.62 21.5 0 12.82-8.62 21.32-8.63 8.5-21.38 8.5H150Z"/>
  </symbol>

  <!-- search -->
  <symbol id="search" viewBox="0 -960 960 960">
    <path fill="currentColor" d="M378-329q-108.16 0-183.08-75Q120-479 120-585t75-181q75-75 181.5-75t181 75Q632-691 632-584.85 632-542 618-502q-14 40-42 75l242 240q9 8.56 9 21.78T818-143q-9 9-22.22 9-13.22 0-21.78-9L533-384q-30 26-69.96 40.5Q423.08-329 378-329Zm-1-60q81.25 0 138.13-57.5Q572-504 572-585t-56.87-138.5Q458.25-781 377-781q-82.08 0-139.54 57.5Q180-666 180-585t57.46 138.5Q294.92-389 377-389Z"/>
  </symbol>

  <!-- settings -->
  <symbol id="settings" viewBox="0 -960 960 960">
    <path fill="currentColor" d="M421-80q-14 0-25-9t-13-23l-15-94q-19-7-40-19t-37-25l-86 40q-14 6-28 1.5T155-226L97-330q-8-13-4.5-27t15.5-23l80-59q-2-9-2.5-20.5T185-480q0-9 .5-20.5T188-521l-80-59q-12-9-15.5-23t4.5-27l58-104q8-13 22-17.5t28 1.5l86 40q16-13 37-25t40-18l15-95q2-14 13-23t25-9h118q14 0 25 9t13 23l15 94q19 7 40.5 18.5T669-710l86-40q14-6 27.5-1.5T804-734l59 104q8 13 4.5 27.5T852-580l-80 57q2 10 2.5 21.5t.5 21.5q0 10-.5 21t-2.5 21l80 58q12 8 15.5 22.5T863-330l-58 104q-8 13-22 17.5t-28-1.5l-86-40q-16 13-36.5 25.5T592-206l-15 94q-2 14-13 23t-25 9H421Zm15-60h88l14-112q33-8 62.5-25t53.5-41l106 46 40-72-94-69q4-17 6.5-33.5T715-480q0-17-2-33.5t-7-33.5l94-69-40-72-106 46q-23-26-52-43.5T538-708l-14-112h-88l-14 112q-34 7-63.5 24T306-642l-106-46-40 72 94 69q-4 17-6.5 33.5T245-480q0 17 2.5 33.5T254-413l-94 69 40 72 106-46q24 24 53.5 41t62.5 25l14 112Zm44-210q54 0 92-38t38-92q0-54-38-92t-92-38q-54 0-92 38t-38 92q0 54 38 92t92 38Zm0-130Z"/>
  </symbol>

</svg>